<?xml version="1.0" encoding="UTF-8" standalone="no"?>
<!-- Created with Inkscape (http://www.inkscape.org/) -->

<svg xmlns:dc="http://purl.org/dc/elements/1.1/" xmlns:cc="http://creativecommons.org/ns#" xmlns:rdf="http://www.w3.org/1999/02/22-rdf-syntax-ns#" xmlns:svg="http://www.w3.org/2000/svg" xmlns="http://www.w3.org/2000/svg" xmlns:sodipodi="http://sodipodi.sourceforge.net/DTD/sodipodi-0.dtd" xmlns:inkscape="http://www.inkscape.org/namespaces/inkscape" width="2560" height="1440" viewBox="0 0 677.33332 381.00001" version="1.1" id="svg8" inkscape:version="0.92.4 5da689c313, 2019-01-14" sodipodi:docname="wallpaper.svg">
  <defs id="defs2" />
  <sodipodi:namedview id="base" pagecolor="#ffffff" bordercolor="#666666" borderopacity="1.0" inkscape:pageopacity="0.0" inkscape:pageshadow="2" inkscape:zoom="0.16" inkscape:cx="1106.9811" inkscape:cy="765.88257" inkscape:document-units="mm" inkscape:current-layer="layer1" showgrid="false" units="px" inkscape:window-width="1920" inkscape:window-height="1054" inkscape:window-x="0" inkscape:window-y="26" inkscape:window-maximized="1" />
  <metadata id="metadata5">
    <rdf:RDF>
      <cc:Work rdf:about="">
        <dc:format>image/svg+xml</dc:format>
        <dc:type rdf:resource="http://purl.org/dc/dcmitype/StillImage" />
        <dc:title></dc:title>
      </cc:Work>
    </rdf:RDF>
  </metadata>
  <g inkscape:groupmode="layer" id="layer3" inkscape:label="Layer 2" style="display:inline">
    <rect style="opacity:1;fill:#999999;fill-opacity:1;fill-rule:evenodd;stroke:none;stroke-width:0.26504403;stroke-linecap:round;stroke-linejoin:bevel;stroke-miterlimit:4;stroke-dasharray:none;stroke-dashoffset:0;stroke-opacity:1;paint-order:normal" id="rect856" width="677.56177" height="380.99817" x="-0.0016907777" y="-2.7815396e-08" />
  </g>
  <g inkscape:label="Layer 1" inkscape:groupmode="layer" id="layer1" transform="translate(0,84.000017)">
    <path style="opacity:1;fill:#656565;fill-opacity:1;fill-rule:evenodd;stroke:none;stroke-width:2.86164212;stroke-linecap:round;stroke-linejoin:bevel;stroke-miterlimit:4;stroke-dasharray:none;stroke-dashoffset:0;stroke-opacity:1;paint-order:normal" d="" id="path821" inkscape:connector-curvature="0" transform="matrix(0.26458333,0,0,0.26458333,0,-84.000017)" />
    <path style="opacity:1;fill:#ff0000;fill-opacity:1;fill-rule:evenodd;stroke:none;stroke-width:0.7824803;stroke-linecap:round;stroke-linejoin:bevel;stroke-miterlimit:4;stroke-dasharray:none;stroke-dashoffset:0;stroke-opacity:1;paint-order:normal" d="m 89.718,1214.431 c -18.691406,-22.7218 -34.29656,-41.7629 -34.678121,-42.3134 -0.484402,-0.699 9.888526,-15.5488 34.375001,-49.2111 l 35.06875,-48.21 0.18241,47.1011 c 0.10033,25.9056 -0.0754,66.6412 -0.39062,90.5235 l -0.57304,43.4224 z" id="path879" inkscape:connector-curvature="0" transform="matrix(0.26458333,0,0,0.26458333,0,-84.000017)" />
    <path style="opacity:1;fill:#0000ff;fill-opacity:1;fill-rule:evenodd;stroke:none;stroke-width:0.7824803;stroke-linecap:round;stroke-linejoin:bevel;stroke-miterlimit:4;stroke-dasharray:none;stroke-dashoffset:0;stroke-opacity:1;paint-order:normal" d="m 152.52056,1087.2306 -24.30681,-17.646 24.30681,-33.4261 24.30682,-33.4262 0.20591,25.9135 c 0.11325,14.2524 0.11325,37.2349 0,51.0722 l -0.20591,25.1587 z" id="path881" inkscape:connector-curvature="0" transform="matrix(0.26458333,0,0,0.26458333,0,-84.000017)" />
    <path style="opacity:1;fill:#aa0000;fill-opacity:1;fill-rule:evenodd;stroke:none;stroke-width:0.20703125;stroke-linecap:round;stroke-linejoin:bevel;stroke-miterlimit:4;stroke-dasharray:none;stroke-dashoffset:0;stroke-opacity:1;paint-order:normal" d="m 86.73403,227.33389 c 0,-4.66121 0.05197,-8.47492 0.115499,-8.47492 0.320937,0 20.399081,14.7828 20.137481,14.82648 -0.60826,0.1016 -19.55634,2.12339 -19.900169,2.12339 -0.326874,0 -0.352811,-0.62304 -0.352811,-8.47495 z" id="path883" inkscape:connector-curvature="0" />
    <path style="opacity:1;fill:#d35f5f;fill-opacity:1;fill-rule:evenodd;stroke:none;stroke-width:0.20703125;stroke-linecap:round;stroke-linejoin:bevel;stroke-miterlimit:4;stroke-dasharray:none;stroke-dashoffset:0;stroke-opacity:1;paint-order:normal" d="m 162.34212,234.61107 c -3.26553,-2.35397 -5.93979,-4.40179 -5.94279,-4.5507 -0.006,-0.30329 3.83735,-14.60648 4.08275,-15.19364 0.10783,-0.25797 1.39636,3.39375 4.13205,11.71032 2.18645,6.64687 3.97537,12.14081 3.97537,12.20878 0,0.068 -0.0698,0.11946 -0.15503,0.1144 -0.0853,-0.005 -2.82683,-1.93516 -6.09235,-4.28916 z" id="path885" inkscape:connector-curvature="0" />
    <path style="opacity:1;fill:#552200;fill-opacity:1;fill-rule:evenodd;stroke:none;stroke-width:0.20703125;stroke-linecap:round;stroke-linejoin:bevel;stroke-miterlimit:4;stroke-dasharray:none;stroke-dashoffset:0;stroke-opacity:1;paint-order:normal" d="m 134.42019,154.83969 c -5.54845,-6.08379 -10.05675,-11.09278 -10.01843,-11.1311 0.13073,-0.13072 12.18352,-1.98459 12.2794,-1.88872 0.13554,0.13555 7.95409,23.96173 7.88451,24.02722 -0.0316,0.0297 -4.59703,-4.92362 -10.14548,-11.0074 z" id="path887" inkscape:connector-curvature="0" />
    <path style="opacity:1;fill:#00ff00;fill-opacity:1;fill-rule:evenodd;stroke:none;stroke-width:0.20703125;stroke-linecap:round;stroke-linejoin:bevel;stroke-miterlimit:4;stroke-dasharray:none;stroke-dashoffset:0;stroke-opacity:1;paint-order:normal" d="m 118.94548,241.5294 c -5.64661,-4.11245 -10.24674,-7.49702 -10.22251,-7.52126 0.0752,-0.0751 30.98106,-3.38302 31.03391,-3.32155 0.0766,0.089 -10.32382,18.35171 -10.44147,18.33483 -0.0568,-0.008 -4.72331,-3.37955 -10.36993,-7.49202 z" id="path889" inkscape:connector-curvature="0" />
    <path style="opacity:1;fill:#aad400;fill-opacity:1;fill-rule:evenodd;stroke:none;stroke-width:0.20703125;stroke-linecap:round;stroke-linejoin:bevel;stroke-miterlimit:4;stroke-dasharray:none;stroke-dashoffset:0;stroke-opacity:1;paint-order:normal" d="m 100.37661,301.23636 c 0,-0.20654 28.72524,-50.79326 29.02556,-51.11565 0.19204,-0.20611 1.80228,0.87178 7.67457,5.13736 4.08735,2.96902 7.50843,5.47013 7.60241,5.55802 0.094,0.0879 -9.67506,9.12424 -21.70897,20.08077 -22.973207,20.91642 -22.59357,20.57466 -22.59357,20.3395 z" id="path891" inkscape:connector-curvature="0" />
    <path style="opacity:1;fill:#6c5353;fill-opacity:1;fill-rule:evenodd;stroke:none;stroke-width:0.20703125;stroke-linecap:round;stroke-linejoin:bevel;stroke-miterlimit:4;stroke-dasharray:none;stroke-dashoffset:0;stroke-opacity:1;paint-order:normal" d="m 177.7893,264.69888 c -3.55057,-2.57109 -6.43411,-4.69019 -6.40787,-4.70908 0.0262,-0.0188 5.78789,0.6696 12.80368,1.53 l 12.75599,1.56435 -6.24476,3.15892 c -3.43461,1.73741 -6.29126,3.15253 -6.3481,3.14473 -0.0568,-0.008 -3.00837,-2.11783 -6.55894,-4.68892 z" id="path893" inkscape:connector-curvature="0" />
    <path style="opacity:1;fill:#0000ff;fill-opacity:1;fill-rule:evenodd;stroke:none;stroke-width:0.20703125;stroke-linecap:round;stroke-linejoin:bevel;stroke-miterlimit:4;stroke-dasharray:none;stroke-dashoffset:0;stroke-opacity:1;paint-order:normal" d="m 153.2267,190.51606 c -3.95886,-12.05912 -7.16283,-21.96079 -7.11994,-22.00368 0.0429,-0.0429 4.64958,4.9339 10.23708,11.05952 l 10.15909,11.1375 -2.9358,10.8699 c -1.61469,5.97842 -2.98231,10.86821 -3.03916,10.86617 -0.0568,-0.003 -3.34241,-9.87025 -7.30127,-21.92941 z" id="path895" inkscape:connector-curvature="0" />
    <path style="opacity:1;fill:#6b6bff;fill-opacity:1;fill-rule:evenodd;stroke:none;stroke-width:0.7824803;stroke-linecap:round;stroke-linejoin:bevel;stroke-miterlimit:4;stroke-dasharray:none;stroke-dashoffset:0;stroke-opacity:1;paint-order:normal" d="m 127.7627,897.62608 c 0.24682,-45.87819 0.4889,-83.47009 0.53796,-83.53756 0.21082,-0.2899 60.63609,118.37423 60.63609,119.07813 0,0.61801 -57.13851,45.15817 -60.69421,47.31188 -0.7161,0.43374 -0.8259,-18.52556 -0.47984,-82.85245 z" id="path897" inkscape:connector-curvature="0" transform="matrix(0.26458333,0,0,0.26458333,0,-84.000017)" />
    <path style="opacity:1;fill:#3eff92;fill-opacity:1;fill-rule:evenodd;stroke:none;stroke-width:0.20703125;stroke-linecap:round;stroke-linejoin:bevel;stroke-miterlimit:4;stroke-dasharray:none;stroke-dashoffset:0;stroke-opacity:1;paint-order:normal" d="m 138.94506,140.74465 c 0.54374,-0.493 22.0567,-16.15203 22.11296,-16.09576 0.0365,0.0365 -1.30502,3.13354 -2.98117,6.88228 l -3.04756,6.81591 -7.43092,1.17257 c -4.087,0.64492 -7.74844,1.2229 -8.13654,1.28441 -0.3881,0.0615 -0.62064,0.0348 -0.51677,-0.0594 z" id="path899" inkscape:connector-curvature="0" />
    <path style="opacity:1;fill:#3edcff;fill-opacity:1;fill-rule:evenodd;stroke:none;stroke-width:0.20703125;stroke-linecap:round;stroke-linejoin:bevel;stroke-miterlimit:4;stroke-dasharray:none;stroke-dashoffset:0;stroke-opacity:1;paint-order:normal" d="m 123.16334,113.26852 c 0,-0.13143 17.5149,-39.220701 17.60148,-39.282492 0.12982,-0.09264 42.84852,-5.064794 42.91797,-4.995346 0.059,0.05905 -59.50996,43.770398 -60.24106,44.204498 -0.15311,0.0909 -0.27839,0.12392 -0.27839,0.0733 z" id="path901" inkscape:connector-curvature="0" />
    <path style="opacity:1;fill:#cf3eff;fill-opacity:1;fill-rule:evenodd;stroke:none;stroke-width:0.7824803;stroke-linecap:round;stroke-linejoin:bevel;stroke-miterlimit:4;stroke-dasharray:none;stroke-dashoffset:0;stroke-opacity:1;paint-order:normal" d="m 271.5607,688.49275 c -72.07636,-9.98153 -131.23046,-18.33078 -131.45356,-18.55387 -0.70093,-0.70093 73.23087,-79.65295 74.22937,-79.26979 0.97104,0.37262 191.91399,115.24125 192.50389,115.80766 0.82515,0.79231 -12.20312,-0.93966 -135.2797,-17.984 z" id="path903" inkscape:connector-curvature="0" transform="matrix(0.26458333,0,0,0.26458333,0,-84.000017)" />
    <path style="opacity:1;fill:#ff5c3e;fill-opacity:1;fill-rule:evenodd;stroke:none;stroke-width:0.7824803;stroke-linecap:round;stroke-linejoin:bevel;stroke-miterlimit:4;stroke-dasharray:none;stroke-dashoffset:0;stroke-opacity:1;paint-order:normal" d="M 88.886102,732.92011 C 68.448089,692.98177 51.791815,660.2034 51.872159,660.0793 c 0.177396,-0.27401 80.758441,10.71794 82.281941,11.22397 0.73174,0.24304 -0.20692,1.7149 -2.92969,4.59382 l -4.00641,4.23619 -0.10719,37.35146 c -0.059,20.54329 -0.32263,48.75875 -0.58594,62.701 l -0.47874,25.34954 z" id="path905" inkscape:connector-curvature="0" transform="matrix(0.26458333,0,0,0.26458333,0,-84.000017)" />
    <path style="opacity:1;fill:#e6ff3e;fill-opacity:1;fill-rule:evenodd;stroke:none;stroke-width:0.7824803;stroke-linecap:round;stroke-linejoin:bevel;stroke-miterlimit:4;stroke-dasharray:none;stroke-dashoffset:0;stroke-opacity:1;paint-order:normal" d="m 100.62991,1049.5257 c -13.11955,-9.5401 -25.307729,-18.4164 -27.084847,-19.7249 l -3.231125,-2.3791 27.475469,-21.1376 27.475473,-21.13761 0.19156,28.59481 c 0.10535,15.7272 -0.0704,34.1153 -0.39063,40.8626 l -0.58218,12.2676 z" id="path907" inkscape:connector-curvature="0" transform="matrix(0.26458333,0,0,0.26458333,0,-84.000017)" />
    <path style="opacity:1;fill:#90ff3e;fill-opacity:1;fill-rule:evenodd;stroke:none;stroke-width:0.20703125;stroke-linecap:round;stroke-linejoin:bevel;stroke-miterlimit:4;stroke-dasharray:none;stroke-dashoffset:0;stroke-opacity:1;paint-order:normal" d="m 115.4817,60.588658 c 0.16197,-0.205218 2.0518,-2.259523 4.19962,-4.56512 2.68087,-2.877802 4.00932,-4.161338 4.23747,-4.094208 0.18278,0.05378 5.58782,1.082797 12.0112,2.286693 6.42339,1.203899 11.8518,2.258476 12.06314,2.343507 0.22214,0.08937 -6.40575,1.004536 -15.70964,2.169142 -8.85164,1.107998 -16.31943,2.063721 -16.59508,2.123826 -0.45834,0.09994 -0.47601,0.07739 -0.20671,-0.26384 z" id="path909" inkscape:connector-curvature="0" />
    <path style="opacity:1;fill:#2b44e2;fill-opacity:1;fill-rule:evenodd;stroke:none;stroke-width:0.7824803;stroke-linecap:round;stroke-linejoin:bevel;stroke-miterlimit:4;stroke-dasharray:none;stroke-dashoffset:0;stroke-opacity:1;paint-order:normal" d="m 168.48241,560.85382 c -23.92566,-14.46878 -43.42572,-26.38237 -43.33345,-26.47463 0.28469,-0.28469 155.41558,-19.81652 155.63267,-19.59501 0.44503,0.4541 -66.729,72.09292 -67.72825,72.22989 -0.58836,0.0806 -20.6453,-11.69147 -44.57097,-26.16025 z" id="path911" inkscape:connector-curvature="0" transform="matrix(0.26458333,0,0,0.26458333,0,-84.000017)" />
    <path style="opacity:1;fill:#2be2c0;fill-opacity:1;fill-rule:evenodd;stroke:none;stroke-width:0.20703125;stroke-linecap:round;stroke-linejoin:bevel;stroke-miterlimit:4;stroke-dasharray:none;stroke-dashoffset:0;stroke-opacity:1;paint-order:normal" d="m 135.05173,39.524124 c 0.479,-0.55875 1.73298,-1.917137 2.78662,-3.018639 l 1.9157,-2.002732 20.21379,-6.239963 c 11.11759,-3.431979 20.26191,-6.191853 20.32071,-6.133049 0.0588,0.0588 -1.51594,3.351585 -3.49943,7.317301 l -3.60634,7.21039 -18.67807,1.819701 c -10.27294,1.000834 -19.04838,1.87442 -19.50098,1.941301 l -0.82291,0.1216 z" id="path913" inkscape:connector-curvature="0" />
    <path style="opacity:1;fill:#e22b53;fill-opacity:1;fill-rule:evenodd;stroke:none;stroke-width:0.20703125;stroke-linecap:round;stroke-linejoin:bevel;stroke-miterlimit:4;stroke-dasharray:none;stroke-dashoffset:0;stroke-opacity:1;paint-order:normal" d="m 107.25077,48.352814 c -8.781747,-1.662819 -15.967354,-3.093071 -15.968015,-3.178339 -5.3e-4,-0.08526 0.276606,-0.15503 0.616145,-0.15503 0.33954,0 9.65379,-0.886679 20.69833,-1.970397 11.04454,-1.08372 20.10777,-1.943613 20.14051,-1.910873 0.0637,0.0637 -7.47634,8.235108 -8.75527,9.488402 l -0.76488,0.749549 z" id="path915" inkscape:connector-curvature="0" />
    <path style="opacity:1;fill:#e22b53;fill-opacity:1;fill-rule:evenodd;stroke:none;stroke-width:0.7824803;stroke-linecap:round;stroke-linejoin:bevel;stroke-miterlimit:4;stroke-dasharray:none;stroke-dashoffset:0;stroke-opacity:1;paint-order:normal" d="" id="path917" inkscape:connector-curvature="0" transform="matrix(0.26458333,0,0,0.26458333,0,-84.000017)" />
    <path style="opacity:1;fill:#dee22b;fill-opacity:1;fill-rule:evenodd;stroke:none;stroke-width:0.20703125;stroke-linecap:round;stroke-linejoin:bevel;stroke-miterlimit:4;stroke-dasharray:none;stroke-dashoffset:0;stroke-opacity:1;paint-order:normal" d="m 220.93515,41.72741 c 0,-0.221004 17.19386,-41.77408083 17.35263,-41.93679693 0.15154,-0.15530512 31.54801,4.64811793 32.60128,4.98774763 0.38003,0.1225365 -0.19957,0.6173814 -3.82404,3.264998 -4.5683,3.3370523 -43.22851,31.6507463 -45.04466,32.9894983 -0.59687,0.439968 -1.08521,0.752515 -1.08521,0.694553 z" id="path919" inkscape:connector-curvature="0" />
    <path style="opacity:1;fill:#2b90e2;fill-opacity:1;fill-rule:evenodd;stroke:none;stroke-width:0.20703125;stroke-linecap:round;stroke-linejoin:bevel;stroke-miterlimit:4;stroke-dasharray:none;stroke-dashoffset:0;stroke-opacity:1;paint-order:normal" d="m 185.85933,-7.242115 c -10.02611,-0.6938143 -18.20986,-1.2809141 -18.18611,-1.3046657 0.13513,-0.135136 52.92769,-16.3891403 52.9992,-16.3176293 0.0476,0.04757 -3.09452,4.327435 -6.98242,9.510816 l -7.06892,9.4243282 -1.26622,-0.025691 c -0.69642,-0.014129 -9.46941,-0.5933493 -19.49553,-1.2871635 z" id="path921" inkscape:connector-curvature="0" />
    <path style="opacity:1;fill:#2b90e2;fill-opacity:1;fill-rule:evenodd;stroke:none;stroke-width:0.7824803;stroke-linecap:round;stroke-linejoin:bevel;stroke-miterlimit:4;stroke-dasharray:none;stroke-dashoffset:0;stroke-opacity:1;paint-order:normal" d="" id="path923" inkscape:connector-curvature="0" transform="matrix(0.26458333,0,0,0.26458333,0,-84.000017)" />
    <path style="opacity:1;fill:#d22be2;fill-opacity:1;fill-rule:evenodd;stroke:none;stroke-width:0.20703125;stroke-linecap:round;stroke-linejoin:bevel;stroke-miterlimit:4;stroke-dasharray:none;stroke-dashoffset:0;stroke-opacity:1;paint-order:normal" d="m 166.72915,12.683904 c 0,-0.129836 6.60618,-13.391866 6.74435,-13.539401 0.11828,-0.126304 29.42775,1.8501335 30.01213,2.0238245 0.34633,0.1029335 -4.61619,1.7210881 -17.85511,5.8221139 -19.98277,6.1900646 -18.90137,5.8643276 -18.90137,5.6934626 z" id="path925" inkscape:connector-curvature="0" />
    <path style="opacity:1;fill:#2b5ce2;fill-opacity:1;fill-rule:evenodd;stroke:none;stroke-width:0.20703125;stroke-linecap:round;stroke-linejoin:bevel;stroke-miterlimit:4;stroke-dasharray:none;stroke-dashoffset:0;stroke-opacity:1;paint-order:normal" d="m 185.92518,68.075713 c 0.45745,-0.431271 33.60565,-24.627358 33.65663,-24.567213 0.0318,0.03754 -1.95995,4.95168 -4.42617,10.920306 l -4.48404,10.852052 -11.66306,1.376736 c -6.41469,0.757203 -12.02315,1.424239 -12.46325,1.482302 -0.44009,0.05807 -0.71914,0.02918 -0.62011,-0.06418 z" id="path927" inkscape:connector-curvature="0" />
    <path style="opacity:1;fill:#2be2d9;fill-opacity:1;fill-rule:evenodd;stroke:none;stroke-width:0.58557278;stroke-linecap:round;stroke-linejoin:bevel;stroke-miterlimit:4;stroke-dasharray:none;stroke-dashoffset:0;stroke-opacity:1;paint-order:normal" d="m 232.14366,-68.26041 c 5.00961,-6.672342 9.19327,-12.131529 9.29702,-12.131529 0.10374,0 3.2183,3.310935 6.92123,7.357636 l 6.73262,7.357637 -15.58431,4.791196 c -8.57137,2.635158 -15.7847,4.78341 -16.02962,4.773893 -0.24493,-0.0095 3.65345,-5.476491 8.66306,-12.148833 z" id="path929" inkscape:connector-curvature="0" />
    <path style="opacity:1;fill:#3c2be2;fill-opacity:1;fill-rule:evenodd;stroke:none;stroke-width:0.58557278;stroke-linecap:round;stroke-linejoin:bevel;stroke-miterlimit:4;stroke-dasharray:none;stroke-dashoffset:0;stroke-opacity:1;paint-order:normal" d="m 269.12739,-51.396606 -12.6333,-13.924923 6.15511,-1.875526 c 3.38529,-1.031539 6.36625,-1.6599 6.62435,-1.396359 0.58303,0.595397 12.90285,30.706022 12.66198,30.94691 -0.0961,0.09615 -5.85981,-6.091397 -12.80814,-13.750102 z" id="path931" inkscape:connector-curvature="0" />
    <path style="opacity:1;fill:#2be292;fill-opacity:1;fill-rule:evenodd;stroke:none;stroke-width:0.58557278;stroke-linecap:round;stroke-linejoin:bevel;stroke-miterlimit:4;stroke-dasharray:none;stroke-dashoffset:0;stroke-opacity:1;paint-order:normal" d="m 308.69554,12.258645 -0.0209,-15.5931525 -2.04628,-4.8519212 c -1.12546,-2.6685583 -2.04629,-4.9434143 -2.04629,-5.0552353 0,-0.11182 0.4604,-0.07701 1.02314,0.07737 0.56272,0.154368 1.98951,0.443319 3.17064,0.642112 1.85962,0.312983 3.29004,1.614651 10.6699,9.7095463 4.68733,5.14146 8.51167,9.6716928 8.49858,10.0671867 -0.013,0.3954938 -4.34473,5.191667 -9.62586,10.658165 l -9.60205,9.939084 z" id="path933" inkscape:connector-curvature="0" />
    <path style="opacity:1;fill:#2b3ce2;fill-opacity:1;fill-rule:evenodd;stroke:none;stroke-width:0.58557278;stroke-linecap:round;stroke-linejoin:bevel;stroke-miterlimit:4;stroke-dasharray:none;stroke-dashoffset:0;stroke-opacity:1;paint-order:normal" d="m 369.26038,50.667456 c 0,-1.591643 2.88716,-21.289615 3.16053,-21.562972 0.38399,-0.383985 36.854,-7.786045 37.53982,-7.619193 0.51258,0.124706 -36.70458,27.970662 -39.90726,29.858692 -0.55679,0.328229 -0.79309,0.126648 -0.79309,-0.676527 z" id="path935" inkscape:connector-curvature="0" />
    <path style="opacity:1;fill:#2b3ce2;fill-opacity:1;fill-rule:evenodd;stroke:none;stroke-width:0.20703125;stroke-linecap:round;stroke-linejoin:bevel;stroke-miterlimit:4;stroke-dasharray:none;stroke-dashoffset:0;stroke-opacity:1;paint-order:normal" d="m 289.9039,43.724927 c -2.72407,-15.507573 -2.75259,-15.702209 -2.37159,-16.186584 0.21212,-0.26965 1.52263,-1.689373 2.91227,-3.154939 l 2.52659,-2.664669 -0.0285,8.783388 c -0.0156,4.830866 -0.0854,13.313929 -0.15502,18.851256 l -0.12649,10.067861 z" id="path937" inkscape:connector-curvature="0" />
    <path style="opacity:1;fill:#2b3ce2;fill-opacity:1;fill-rule:evenodd;stroke:none;stroke-width:0.58557278;stroke-linecap:round;stroke-linejoin:bevel;stroke-miterlimit:4;stroke-dasharray:none;stroke-dashoffset:0;stroke-opacity:1;paint-order:normal" d="m 518.91392,246.29043 c -0.0487,-4.92165 2.35964,-44.99556 2.72217,-45.29545 4.10697,-3.39727 6.61302,-5.34681 6.66538,-5.18524 0.0358,0.11034 1.03378,8.51573 2.21782,18.67864 l 2.15283,18.47803 -6.87332,7.24667 c -4.8883,5.15382 -6.87665,6.90896 -6.88488,6.07735 z" id="path939" inkscape:connector-curvature="0" />
    <path style="opacity:1;fill:#2b3ce2;fill-opacity:1;fill-rule:evenodd;stroke:none;stroke-width:2.21318841;stroke-linecap:round;stroke-linejoin:bevel;stroke-miterlimit:4;stroke-dasharray:none;stroke-dashoffset:0;stroke-opacity:1;paint-order:normal" d="m 2035.8243,288.44205 c 2.4542,-2.73451 37.1158,-41.76349 77.0257,-86.73106 39.9098,-44.96758 73.3879,-81.75923 74.3957,-81.75923 1.52,0 50.6598,68.05033 49.6204,68.71598 -5.1697,3.31084 -202.3927,104.74616 -203.6604,104.74616 -1.014,0 0.1643,-2.23733 2.6186,-4.97185 z" id="path941" inkscape:connector-curvature="0" transform="matrix(0.26458333,0,0,0.26458333,0,-84.000017)" />
    <path style="opacity:1;fill:#2b3ce2;fill-opacity:1;fill-rule:evenodd;stroke:none;stroke-width:2.21318841;stroke-linecap:round;stroke-linejoin:bevel;stroke-miterlimit:4;stroke-dasharray:none;stroke-dashoffset:0;stroke-opacity:1;paint-order:normal" d="m 2200.0702,895.26274 c 68.0966,-64.22951 87.3484,-82.09295 87.8998,-81.56099 0.339,0.32703 -4.0798,19.48476 -9.8195,42.57273 l -10.4359,41.97812 -39.3401,7.14506 c -21.637,3.92979 -41.5803,7.71209 -44.3183,8.40512 -3.1239,0.7907 2.8412,-6.11529 16.014,-18.54004 z" id="path943" inkscape:connector-curvature="0" transform="matrix(0.26458333,0,0,0.26458333,0,-84.000017)" />
    <path style="opacity:1;fill:#2b3ce2;fill-opacity:1;fill-rule:evenodd;stroke:none;stroke-width:0.58557278;stroke-linecap:round;stroke-linejoin:bevel;stroke-miterlimit:4;stroke-dasharray:none;stroke-dashoffset:0;stroke-opacity:1;paint-order:normal" d="m 299.22951,237.09944 c -11.10337,-5.81345 -13.36505,-7.19945 -12.2777,-7.52396 2.79104,-0.83296 33.78007,-5.36395 34.15075,-4.99327 0.56489,0.56489 -6.84509,19.70905 -7.61484,19.67341 -0.35618,-0.0164 -6.77238,-3.23678 -14.25821,-7.15618 z" id="path945" inkscape:connector-curvature="0" />
    <path style="opacity:1;fill:#2bb8e2;fill-opacity:1;fill-rule:evenodd;stroke:none;stroke-width:0.58557278;stroke-linecap:round;stroke-linejoin:bevel;stroke-miterlimit:4;stroke-dasharray:none;stroke-dashoffset:0;stroke-opacity:1;paint-order:normal" d="m 324.39922,134.39944 0.13393,-13.7109 9.06211,-4.78389 c 4.98417,-2.63114 9.11918,-4.73545 9.18893,-4.67625 0.0698,0.0592 -4.06847,8.38186 -9.19605,18.49479 l -9.32288,18.38716 z" id="path947" inkscape:connector-curvature="0" />
    <path style="opacity:1;fill:#2bb8e2;fill-opacity:1;fill-rule:evenodd;stroke:none;stroke-width:0.58557278;stroke-linecap:round;stroke-linejoin:bevel;stroke-miterlimit:4;stroke-dasharray:none;stroke-dashoffset:0;stroke-opacity:1;paint-order:normal" d="M 452.89157,2.3180857 447.25725,0.47871773 461.95369,-15.054395 c 8.08304,-8.543213 14.7734,-15.467629 14.86746,-15.387587 0.13899,0.118293 -17.9116,34.3674587 -18.20712,34.5461557 -0.0485,0.0293 -2.62358,-0.774435 -5.72246,-1.786088 z" id="path949" inkscape:connector-curvature="0" />
    <path style="opacity:1;fill:#2bb8e2;fill-opacity:1;fill-rule:evenodd;stroke:none;stroke-width:0.58557278;stroke-linecap:round;stroke-linejoin:bevel;stroke-miterlimit:4;stroke-dasharray:none;stroke-dashoffset:0;stroke-opacity:1;paint-order:normal" d="m 320.50918,-43.217047 c -0.57758,-1.953496 -3.90496,-19.598442 -3.72893,-19.774469 0.13687,-0.136864 12.30945,10.307717 14.66302,12.581485 0.39508,0.381685 -9.48179,8.216125 -10.35806,8.216125 -0.15042,0 -0.40963,-0.460412 -0.57603,-1.023141 z" id="path951" inkscape:connector-curvature="0" />
    <path style="opacity:1;fill:#2bb8e2;fill-opacity:1;fill-rule:evenodd;stroke:none;stroke-width:0.58557278;stroke-linecap:round;stroke-linejoin:bevel;stroke-miterlimit:4;stroke-dasharray:none;stroke-dashoffset:0;stroke-opacity:1;paint-order:normal" d="m 523.38636,267.0923 -11.1738,-4.49567 12.05079,-11.30342 12.05079,-11.30342 0.14494,1.96551 c 0.0797,1.081 -0.31493,8.1906 -0.87699,15.79909 l -1.0219,13.8336 z" id="path953" inkscape:connector-curvature="0" />
    <path style="opacity:1;fill:#2bb8e2;fill-opacity:1;fill-rule:evenodd;stroke:none;stroke-width:0.58557278;stroke-linecap:round;stroke-linejoin:bevel;stroke-miterlimit:4;stroke-dasharray:none;stroke-dashoffset:0;stroke-opacity:1;paint-order:normal" d="m 261.79648,217.11718 c -3.16738,-1.704 -5.7558,-3.34465 -5.75202,-3.64586 0.008,-0.67095 37.12485,-42.9483 37.43402,-42.63913 0.39788,0.39788 -24.73883,49.39239 -25.33843,49.38773 -0.32155,-0.003 -3.17617,-1.39872 -6.34357,-3.10274 z" id="path955" inkscape:connector-curvature="0" />
    <path style="opacity:1;fill:#2be28f;fill-opacity:1;fill-rule:evenodd;stroke:none;stroke-width:2.21318841;stroke-linecap:round;stroke-linejoin:bevel;stroke-miterlimit:4;stroke-dasharray:none;stroke-dashoffset:0;stroke-opacity:1;paint-order:normal" d="m 2483.2618,304.11354 c -9.9069,-24.52774 -17.5988,-45.00957 -17.0932,-45.51518 1.0761,-1.07618 59.1645,14.97854 61.2367,16.92487 1.126,1.0576 -23.1821,70.23731 -25.491,72.54618 -0.352,0.35201 -8.7456,-19.42813 -18.6525,-43.95587 z" id="path957" inkscape:connector-curvature="0" transform="matrix(0.26458333,0,0,0.26458333,0,-84.000017)" />
    <path style="opacity:1;fill:#2be28f;fill-opacity:1;fill-rule:evenodd;stroke:none;stroke-width:0.58557278;stroke-linecap:round;stroke-linejoin:bevel;stroke-miterlimit:4;stroke-dasharray:none;stroke-dashoffset:0;stroke-opacity:1;paint-order:normal" d="m 458.44274,34.484386 -5.76334,-17.323543 3.05126,-5.677995 c 2.90539,-5.4065843 3.13902,-5.6735463 4.8873,-5.5848393 1.00984,0.05124 2.05092,0.314331 2.31352,0.584653 0.71406,0.735055 2.47822,44.1216573 1.82076,44.7791063 -0.33843,0.338442 -2.73807,-6.042382 -6.3095,-16.777382 z" id="path959" inkscape:connector-curvature="0" />
    <path style="opacity:1;fill:#2be28f;fill-opacity:1;fill-rule:evenodd;stroke:none;stroke-width:2.21318841;stroke-linecap:round;stroke-linejoin:bevel;stroke-miterlimit:4;stroke-dasharray:none;stroke-dashoffset:0;stroke-opacity:1;paint-order:normal" d="" id="path961" inkscape:connector-curvature="0" transform="matrix(0.26458333,0,0,0.26458333,0,-84.000017)" />
    <path style="opacity:1;fill:#2be28f;fill-opacity:1;fill-rule:evenodd;stroke:none;stroke-width:0.58557278;stroke-linecap:round;stroke-linejoin:bevel;stroke-miterlimit:4;stroke-dasharray:none;stroke-dashoffset:0;stroke-opacity:1;paint-order:normal" d="m 191.83053,266.465 -14.04123,-1.76612 -3.68051,-11.37444 c -2.02428,-6.25591 -3.58533,-11.4696 -3.46899,-11.58594 0.11633,-0.11631 8.09112,5.46216 17.72174,12.39665 9.63063,6.93449 18.02918,12.97692 18.66346,13.42763 1.14787,0.81563 1.14787,0.81907 0,0.74391 -0.63428,-0.0416 -7.47179,-0.87032 -15.19447,-1.84169 z" id="path965" inkscape:connector-curvature="0" />
    <path style="opacity:1;fill:#8be22b;fill-opacity:1;fill-rule:evenodd;stroke:none;stroke-width:0.58557278;stroke-linecap:round;stroke-linejoin:bevel;stroke-miterlimit:4;stroke-dasharray:none;stroke-dashoffset:0;stroke-opacity:1;paint-order:normal" d="m 250.89951,174.92124 c -0.0159,-0.32155 2.9351,-11.15271 6.55772,-24.06922 l 6.58662,-23.48458 7.17309,-1.88977 c 3.9452,-1.03938 7.2595,-1.78434 7.36507,-1.65547 0.16,0.19525 -24.74129,46.87822 -26.94498,50.51439 -0.38978,0.64312 -0.72165,0.9062 -0.73752,0.58465 z" id="path967" inkscape:connector-curvature="0" />
    <path style="opacity:1;fill:#8be22b;fill-opacity:1;fill-rule:evenodd;stroke:none;stroke-width:0.58557278;stroke-linecap:round;stroke-linejoin:bevel;stroke-miterlimit:4;stroke-dasharray:none;stroke-dashoffset:0;stroke-opacity:1;paint-order:normal" d="m 348.45164,102.31931 3.17312,-6.327018 22.03934,-16.212 c 12.12163,-8.916601 22.10943,-16.132767 22.19508,-16.035922 0.15158,0.171339 -2.63102,19.990403 -2.82461,20.118506 -0.57314,0.379212 -47.39222,24.783454 -47.54661,24.783454 -0.11517,0 1.21846,-2.84716 2.96368,-6.32702 z" id="path969" inkscape:connector-curvature="0" />
    <path style="opacity:1;fill:#8be22b;fill-opacity:1;fill-rule:evenodd;stroke:none;stroke-width:0.58557278;stroke-linecap:round;stroke-linejoin:bevel;stroke-miterlimit:4;stroke-dasharray:none;stroke-dashoffset:0;stroke-opacity:1;paint-order:normal" d="m 418.01166,235.31182 c 0.24707,-0.80389 3.79484,-11.04636 7.88392,-22.76102 l 7.43471,-21.29942 6.658,0.15365 c 3.66192,0.0845 6.71349,0.20913 6.78133,0.27695 0.13385,0.13386 -28.325,44.27248 -28.87343,44.78165 -0.18356,0.17042 -0.1316,-0.3479 0.11547,-1.15181 z" id="path971" inkscape:connector-curvature="0" />
    <path style="opacity:1;fill:#8be22b;fill-opacity:1;fill-rule:evenodd;stroke:none;stroke-width:0.58557278;stroke-linecap:round;stroke-linejoin:bevel;stroke-miterlimit:4;stroke-dasharray:none;stroke-dashoffset:0;stroke-opacity:1;paint-order:normal" d="m 570.69085,193.13804 c -3.7627,-2.14875 -6.65671,-4.06103 -6.43118,-4.24952 0.54962,-0.45931 28.14503,-5.44408 28.44999,-5.13913 0.3997,0.39971 -13.65629,13.37583 -14.4439,13.33421 -0.40351,-0.0213 -3.81222,-1.79682 -7.57491,-3.94556 z" id="path973" inkscape:connector-curvature="0" />
    <path style="opacity:1;fill:#e2b52b;fill-opacity:1;fill-rule:evenodd;stroke:none;stroke-width:0.58557278;stroke-linecap:round;stroke-linejoin:bevel;stroke-miterlimit:4;stroke-dasharray:none;stroke-dashoffset:0;stroke-opacity:1;paint-order:normal" d="m 580.1257,62.890785 c 0.48932,-2.002197 13.67187,-37.213786 13.92835,-37.203713 0.16079,0.0063 2.0324,4.459549 4.15918,9.896078 l 3.8668,9.884598 -10.7343,9.098258 c -5.90389,5.004044 -10.88615,9.098259 -11.0717,9.098259 -0.18556,0 -0.25228,-0.348065 -0.14833,-0.77348 z" id="path975" inkscape:connector-curvature="0" />
    <path style="opacity:1;fill:#e25f2b;fill-opacity:1;fill-rule:evenodd;stroke:none;stroke-width:2.21318841;stroke-linecap:round;stroke-linejoin:bevel;stroke-miterlimit:4;stroke-dasharray:none;stroke-dashoffset:0;stroke-opacity:1;paint-order:normal" d="m 2275.6406,237.77577 c -16.1649,-23.17288 -29.0917,-42.38585 -28.7262,-42.69548 1.5517,-1.31457 125.1836,35.17603 124.2571,36.67513 -1.7616,2.85037 -62.4577,48.37468 -64.3448,48.26101 -0.9874,-0.0595 -15.0212,-19.06777 -31.1861,-42.24066 z" id="path977" inkscape:connector-curvature="0" transform="matrix(0.26458333,0,0,0.26458333,0,-84.000017)" />
    <path style="opacity:1;fill:#e25f2b;fill-opacity:1;fill-rule:evenodd;stroke:none;stroke-width:0.58557278;stroke-linecap:round;stroke-linejoin:bevel;stroke-miterlimit:4;stroke-dasharray:none;stroke-dashoffset:0;stroke-opacity:1;paint-order:normal" d="m 589.76997,12.117794 c -2.155,-5.5153716 -3.84857,-10.0860142 -3.76346,-10.1569834 0.53478,-0.4459288 18.17566,-7.8842128 18.33073,-7.7291511 0.28105,0.2810324 -9.93192,27.8986215 -10.31996,27.9069905 -0.18103,0.0039 -2.09233,-4.505481 -4.24731,-10.020856 z" id="path979" inkscape:connector-curvature="0" />
    <path style="opacity:1;fill:#e25f2b;fill-opacity:1;fill-rule:evenodd;stroke:none;stroke-width:0.58557278;stroke-linecap:round;stroke-linejoin:bevel;stroke-miterlimit:4;stroke-dasharray:none;stroke-dashoffset:0;stroke-opacity:1;paint-order:normal" d="m 562.62349,213.86219 c 0,-0.11374 3.58151,-3.58603 7.9589,-7.71612 l 7.95888,-7.50931 3.00334,1.58702 c 1.65182,0.87286 7.87056,4.34338 13.8194,7.71225 l 10.81606,6.12523 -21.77828,0.004 c -11.97808,0.003 -21.7783,-0.0892 -21.7783,-0.20299 z" id="path981" inkscape:connector-curvature="0" />
    <path style="opacity:1;fill:#e25f2b;fill-opacity:1;fill-rule:evenodd;stroke:none;stroke-width:0.58557278;stroke-linecap:round;stroke-linejoin:bevel;stroke-miterlimit:4;stroke-dasharray:none;stroke-dashoffset:0;stroke-opacity:1;paint-order:normal" d="m 462.57977,191.0675 c 0.40193,-0.16219 1.05968,-0.16219 1.46161,0 0.40195,0.16219 0.0731,0.29488 -0.73081,0.29488 -0.80391,0 -1.13276,-0.13269 -0.7308,-0.29488 z" id="path983" inkscape:connector-curvature="0" />
    <path style="opacity:1;fill:#e25f2b;fill-opacity:1;fill-rule:evenodd;stroke:none;stroke-width:0.58557278;stroke-linecap:round;stroke-linejoin:bevel;stroke-miterlimit:4;stroke-dasharray:none;stroke-dashoffset:0;stroke-opacity:1;paint-order:normal" d="m 429.41044,166.05341 c 2.42874,-4.23301 17.4911,-27.06062 17.71475,-26.84746 0.16079,0.15323 1.6246,6.43994 3.25292,13.97047 l 2.96061,13.69186 h -12.19793 c -10.26321,0 -12.12373,-0.12925 -11.73035,-0.81487 z" id="path985" inkscape:connector-curvature="0" />
    <path style="opacity:1;fill:#e25f2b;fill-opacity:1;fill-rule:evenodd;stroke:none;stroke-width:0.58557278;stroke-linecap:round;stroke-linejoin:bevel;stroke-miterlimit:4;stroke-dasharray:none;stroke-dashoffset:0;stroke-opacity:1;paint-order:normal" d="m 433.00044,30.342972 c 0.20994,-2.483869 0.38174,-7.210632 0.38174,-10.503916 v -5.987791 l 10.08525,-0.402675 c 5.54689,-0.221472 11.92353,-0.315526 14.17032,-0.209007 l 4.08508,0.193667 -14.55208,10.712923 -14.55208,10.712924 z" id="path987" inkscape:connector-curvature="0" />
    <path style="opacity:1;fill:#e25f2b;fill-opacity:1;fill-rule:evenodd;stroke:none;stroke-width:0.58557278;stroke-linecap:round;stroke-linejoin:bevel;stroke-miterlimit:4;stroke-dasharray:none;stroke-dashoffset:0;stroke-opacity:1;paint-order:normal" d="m 286.01725,106.14487 c -0.35927,-1.72923 -1.94135,-9.326749 -3.51573,-16.883377 -1.5744,-7.55663 -2.78135,-13.820672 -2.68216,-13.920097 0.0992,-0.09942 2.97114,3.793308 6.38207,8.650515 5.85084,8.33168 6.20168,8.99472 6.20168,11.7201 0,2.34245 -0.54211,3.89952 -2.86632,8.232859 l -2.86631,5.34406 z" id="path989" inkscape:connector-curvature="0" />
    <path style="opacity:1;fill:#e25f2b;fill-opacity:1;fill-rule:evenodd;stroke:none;stroke-width:0.58557278;stroke-linecap:round;stroke-linejoin:bevel;stroke-miterlimit:4;stroke-dasharray:none;stroke-dashoffset:0;stroke-opacity:1;paint-order:normal" d="m 206.78107,263.69817 -7.60047,-0.96351 14.03064,-7.0949 c 7.71685,-3.90224 14.11259,-7.013 14.21275,-6.91283 0.10017,0.10018 -1.74103,3.75793 -4.09155,8.12838 l -4.27367,7.94623 -2.33861,-0.0699 c -1.28623,-0.0385 -5.75883,-0.50351 -9.93909,-1.03344 z" id="path991" inkscape:connector-curvature="0" />
    <path style="opacity:1;fill:#e22b5a;fill-opacity:1;fill-rule:evenodd;stroke:none;stroke-width:0.58557278;stroke-linecap:round;stroke-linejoin:bevel;stroke-miterlimit:4;stroke-dasharray:none;stroke-dashoffset:0;stroke-opacity:1;paint-order:normal" d="m 318.39431,-11.843256 -6.72351,-1.103741 -5.6846,-6.003946 c -3.12655,-3.302172 -5.69171,-6.173629 -5.70037,-6.38102 -0.0309,-0.739955 19.45098,-14.591334 19.87029,-14.127525 0.23514,0.260123 1.52932,6.261002 2.87592,13.335294 1.34662,7.074289 2.59262,13.454306 2.76894,14.177814 0.17632,0.723506 0.0947,1.291032 -0.18132,1.261165 -0.27601,-0.02987 -3.52742,-0.550984 -7.22535,-1.158041 z" id="path993" inkscape:connector-curvature="0" />
    <path style="opacity:1;fill:#e22b5a;fill-opacity:1;fill-rule:evenodd;stroke:none;stroke-width:2.21318841;stroke-linecap:round;stroke-linejoin:bevel;stroke-miterlimit:4;stroke-dasharray:none;stroke-dashoffset:0;stroke-opacity:1;paint-order:normal" d="" id="path995" inkscape:connector-curvature="0" transform="matrix(0.26458333,0,0,0.26458333,0,-84.000017)" />
    <path style="opacity:1;fill:#e22b5a;fill-opacity:1;fill-rule:evenodd;stroke:none;stroke-width:2.21318841;stroke-linecap:round;stroke-linejoin:bevel;stroke-miterlimit:4;stroke-dasharray:none;stroke-dashoffset:0;stroke-opacity:1;paint-order:normal" d="m 2296.2571,794.43427 c 0.6895,-2.73451 3.45,-13.69969 6.1345,-24.36706 l 4.8809,-19.39522 32.0251,-27.26278 c 17.6137,-14.99453 32.2741,-26.64988 32.5785,-25.90078 0.3043,0.74911 -3.4248,11.80152 -8.287,24.56092 l -8.8403,23.1989 -28.1733,26.95652 c -15.4953,14.82608 -28.938,27.0071 -29.8727,27.06893 -0.9346,0.0618 -1.1352,-2.12491 -0.4457,-4.85943 z" id="path997" inkscape:connector-curvature="0" transform="matrix(0.26458333,0,0,0.26458333,0,-84.000017)" />
    <path style="opacity:1;fill:#e22b5a;fill-opacity:1;fill-rule:evenodd;stroke:none;stroke-width:2.21318841;stroke-linecap:round;stroke-linejoin:bevel;stroke-miterlimit:4;stroke-dasharray:none;stroke-dashoffset:0;stroke-opacity:1;paint-order:normal" d="m 2482.9129,409.5661 c 0,-1.11582 18.0078,-48.73295 18.6916,-49.42505 0.3466,-0.35083 3.8678,7.39398 7.8249,17.21071 3.9571,9.81672 6.8189,18.11491 6.3595,18.44042 -2.0841,1.47678 -32.876,14.3775 -32.876,13.77392 z" id="path999" inkscape:connector-curvature="0" transform="matrix(0.26458333,0,0,0.26458333,0,-84.000017)" />
    <path style="opacity:1;fill:#e22b5a;fill-opacity:1;fill-rule:evenodd;stroke:none;stroke-width:2.21318841;stroke-linecap:round;stroke-linejoin:bevel;stroke-miterlimit:4;stroke-dasharray:none;stroke-dashoffset:0;stroke-opacity:1;paint-order:normal" d="m 2418.2916,240.61904 c -19.1346,-5.6171 -34.7959,-10.85216 -34.8029,-11.63348 -0.01,-1.16038 12.7585,-11.22824 47.7931,-37.6834 2.3754,-1.79373 4.9487,3.73031 23.1052,49.60008 2.9472,7.44584 3.3613,10.41382 1.4247,10.21292 -1.5014,-0.15576 -18.3855,-4.87901 -37.5201,-10.49612 z" id="path1001" inkscape:connector-curvature="0" transform="matrix(0.26458333,0,0,0.26458333,0,-84.000017)" />
    <path style="opacity:1;fill:#e22b5a;fill-opacity:1;fill-rule:evenodd;stroke:none;stroke-width:0.58557278;stroke-linecap:round;stroke-linejoin:bevel;stroke-miterlimit:4;stroke-dasharray:none;stroke-dashoffset:0;stroke-opacity:1;paint-order:normal" d="m 430.35484,4.5705547 c -1.66502,-5.10439197 -2.9709,-9.33714 -2.90192,-9.406109 0.20621,-0.206209 17.0063,5.16728803 17.45684,5.58355703 0.22852,0.211138 -2.27169,3.24574697 -5.55604,6.74357597 l -5.97154,6.3596863 z" id="path1003" inkscape:connector-curvature="0" />
    <path style="opacity:1;fill:#e22b5a;fill-opacity:1;fill-rule:evenodd;stroke:none;stroke-width:0.58557278;stroke-linecap:round;stroke-linejoin:bevel;stroke-miterlimit:4;stroke-dasharray:none;stroke-dashoffset:0;stroke-opacity:1;paint-order:normal" d="m 343.34944,246.14124 c 0,-0.27818 3.63411,-9.99485 8.07575,-21.59259 l 8.07574,-21.08682 7.43508,19.04156 c 4.0893,10.47287 7.29081,19.18587 7.11444,19.36221 -0.35211,0.35211 -27.26759,4.70472 -29.38553,4.75205 -0.7235,0.0161 -1.31548,-0.19823 -1.31548,-0.47641 z" id="path1007" inkscape:connector-curvature="0" />
    <path style="opacity:1;fill:#e22bad;fill-opacity:1;fill-rule:evenodd;stroke:none;stroke-width:0.58557278;stroke-linecap:round;stroke-linejoin:bevel;stroke-miterlimit:4;stroke-dasharray:none;stroke-dashoffset:0;stroke-opacity:1;paint-order:normal" d="m 234.00976,209.26133 c 8.53564,-16.02857 12.25214,-22.54708 11.91679,-20.90132 -0.19657,0.9647 -1.72936,6.6212 -3.4062,12.57004 l -3.0488,10.81606 -4.08229,2.17395 c -2.24526,1.19568 -4.29728,2.18228 -4.56004,2.19244 -0.26276,0.0103 1.16848,-3.07284 3.18054,-6.85117 z" id="path1009" inkscape:connector-curvature="0" />
    <path style="opacity:1;fill:#e22bad;fill-opacity:1;fill-rule:evenodd;stroke:none;stroke-width:0.58557278;stroke-linecap:round;stroke-linejoin:bevel;stroke-miterlimit:4;stroke-dasharray:none;stroke-dashoffset:0;stroke-opacity:1;paint-order:normal" d="m 540.58057,146.49719 c 1.18745,-1.26208 38.39163,-30.77019 38.59078,-30.60788 0.0977,0.0796 -3.03292,6.5721 -6.95685,14.42777 l -7.13446,14.28303 -9.70571,1.03297 c -5.33816,0.56814 -11.02122,1.17637 -12.62902,1.35163 -2.4688,0.26912 -2.80535,0.19333 -2.16474,-0.48752 z" id="path1011" inkscape:connector-curvature="0" />
    <path style="opacity:1;fill:#e22bad;fill-opacity:1;fill-rule:evenodd;stroke:none;stroke-width:2.21318841;stroke-linecap:round;stroke-linejoin:bevel;stroke-miterlimit:4;stroke-dasharray:none;stroke-dashoffset:0;stroke-opacity:1;paint-order:normal" d="" id="path1015" inkscape:connector-curvature="0" transform="matrix(0.26458333,0,0,0.26458333,0,-84.000017)" />
    <path style="opacity:1;fill:#e22bad;fill-opacity:1;fill-rule:evenodd;stroke:none;stroke-width:2.21318841;stroke-linecap:round;stroke-linejoin:bevel;stroke-miterlimit:4;stroke-dasharray:none;stroke-dashoffset:0;stroke-opacity:1;paint-order:normal" d="" id="path1017" inkscape:connector-curvature="0" transform="matrix(0.26458333,0,0,0.26458333,0,-84.000017)" />
    <path style="opacity:1;fill:#e22bad;fill-opacity:1;fill-rule:evenodd;stroke:none;stroke-width:0.58557278;stroke-linecap:round;stroke-linejoin:bevel;stroke-miterlimit:4;stroke-dasharray:none;stroke-dashoffset:0;stroke-opacity:1;paint-order:normal" d="m 497.04553,267.04401 c 0.21431,-4.95152 0.47183,-9.08492 0.57224,-9.18533 0.27279,-0.27281 12.66883,4.70922 12.67449,5.09392 0.003,0.18214 -3.06443,3.20286 -6.81577,6.71267 l -6.82064,6.38151 z" id="path1019" inkscape:connector-curvature="0" />
    <path style="opacity:1;fill:#e22bad;fill-opacity:1;fill-rule:evenodd;stroke:none;stroke-width:0.58557278;stroke-linecap:round;stroke-linejoin:bevel;stroke-miterlimit:4;stroke-dasharray:none;stroke-dashoffset:0;stroke-opacity:1;paint-order:normal" d="m 447.54133,135.46595 c -0.14608,-0.25367 -1.26034,-5.10849 -2.4761,-10.7885 l -2.21049,-10.32728 1.80332,-2.24274 c 0.99184,-1.2335 6.4253,-6.84405 12.07434,-12.467875 l 10.27096,-10.225148 v 3.559601 c 0,1.957779 0.15878,5.50672 0.35285,7.886532 l 0.35282,4.32694 -9.95105,15.36984 c -5.47307,8.45341 -10.07055,15.16229 -10.21665,14.90863 z" id="path1021" inkscape:connector-curvature="0" />
    <path style="opacity:1;fill:#d62be2;fill-opacity:1;fill-rule:evenodd;stroke:none;stroke-width:0.58557278;stroke-linecap:round;stroke-linejoin:bevel;stroke-miterlimit:4;stroke-dasharray:none;stroke-dashoffset:0;stroke-opacity:1;paint-order:normal" d="m 410.79152,-11.324638 c -7.60351,-2.480974 -13.70465,-4.642408 -13.55807,-4.803187 0.14658,-0.16078 5.44682,-1.757902 11.7783,-3.549163 l 11.51178,-3.256841 2.47777,7.64173 c 2.63906,8.1392017 2.73344,8.5298357 2.05328,8.4985137 -0.24117,-0.01111 -6.65954,-2.050079 -14.26306,-4.5310527 z" id="path1023" inkscape:connector-curvature="0" />
    <path style="opacity:1;fill:#d62be2;fill-opacity:1;fill-rule:evenodd;stroke:none;stroke-width:0.58557278;stroke-linecap:round;stroke-linejoin:bevel;stroke-miterlimit:4;stroke-dasharray:none;stroke-dashoffset:0;stroke-opacity:1;paint-order:normal" d="m 516.43597,43.830382 c 0.32157,-0.315368 3.53901,-2.734688 7.14991,-5.376267 5.75943,-4.213373 29.64934,-17.522706 30.29461,-16.877456 0.11351,0.113506 -4.15872,5.130765 -9.49386,11.14947 l -9.70021,10.943098 h -3.91969 c -2.15585,0 -6.39374,0.165272 -9.41755,0.367273 -3.59622,0.240242 -5.29564,0.168947 -4.91321,-0.206118 z" id="path1025" inkscape:connector-curvature="0" />
    <path style="opacity:1;fill:#d62be2;fill-opacity:1;fill-rule:evenodd;stroke:none;stroke-width:2.21318841;stroke-linecap:round;stroke-linejoin:bevel;stroke-miterlimit:4;stroke-dasharray:none;stroke-dashoffset:0;stroke-opacity:1;paint-order:normal" d="" id="path1027" inkscape:connector-curvature="0" transform="matrix(0.26458333,0,0,0.26458333,0,-84.000017)" />
    <path style="opacity:1;fill:#d62be2;fill-opacity:1;fill-rule:evenodd;stroke:none;stroke-width:0.58557278;stroke-linecap:round;stroke-linejoin:bevel;stroke-miterlimit:4;stroke-dasharray:none;stroke-dashoffset:0;stroke-opacity:1;paint-order:normal" d="m 283.1425,117.50922 c 1.3339,-2.51313 2.6016,-4.7731 2.8171,-5.02216 0.2155,-0.24906 0.78452,1.37616 1.2645,3.61159 l 0.87265,4.06442 -2.6702,0.65358 c -1.4686,0.35947 -3.12902,0.79045 -3.68978,0.95773 -0.78467,0.23409 -0.46085,-0.74849 1.40573,-4.26516 z" id="path1029" inkscape:connector-curvature="0" />
    <path style="opacity:1;fill:#5c00ff;fill-opacity:1;fill-rule:evenodd;stroke:none;stroke-width:0.58557278;stroke-linecap:round;stroke-linejoin:bevel;stroke-miterlimit:4;stroke-dasharray:none;stroke-dashoffset:0;stroke-opacity:1;paint-order:normal" d="m 358.08515,224.09207 c -2.02904,-5.26452 -2.06521,-5.48608 -0.92337,-5.65544 0.81439,-0.12078 3.1156,-3.17003 7.31239,-9.68936 3.3682,-5.23224 6.22263,-9.41451 6.34318,-9.29397 0.25476,0.25477 -9.70968,29.13716 -10.25496,29.72441 -0.20101,0.21645 -1.31575,-2.07206 -2.47724,-5.08564 z" id="path1031" inkscape:connector-curvature="0" />
    <path style="opacity:1;fill:#a500ff;fill-opacity:1;fill-rule:evenodd;stroke:none;stroke-width:0.58557278;stroke-linecap:round;stroke-linejoin:bevel;stroke-miterlimit:4;stroke-dasharray:none;stroke-dashoffset:0;stroke-opacity:1;paint-order:normal" d="m 537.97863,233.95861 c 0.19148,-1.92117 0.49483,-5.72934 0.67414,-8.46259 0.17928,-2.73326 0.47577,-6.48232 0.65889,-8.33128 l 0.3329,-3.36175 11.48945,0.0296 11.48948,0.0296 -6.72349,6.4448 c -3.69792,3.54463 -9.32135,8.85225 -12.49651,11.79471 l -5.77299,5.3499 z" id="path1033" inkscape:connector-curvature="0" />
    <path style="opacity:1;fill:#501471;fill-opacity:1;fill-rule:evenodd;stroke:none;stroke-width:0.58557278;stroke-linecap:round;stroke-linejoin:bevel;stroke-miterlimit:4;stroke-dasharray:none;stroke-dashoffset:0;stroke-opacity:1;paint-order:normal" d="m 486.46728,252.21531 -10.09055,-4.04733 6.39265,-6.80493 c 3.51597,-3.74271 8.41105,-8.77813 10.87795,-11.18981 l 4.48527,-4.38489 -0.40561,9.64677 c -0.2231,5.30571 -0.57743,12.16241 -0.7874,15.23714 l -0.38179,5.59038 z" id="path1035" inkscape:connector-curvature="0" />
    <path style="opacity:1;fill:#501471;fill-opacity:1;fill-rule:evenodd;stroke:none;stroke-width:0.58557278;stroke-linecap:round;stroke-linejoin:bevel;stroke-miterlimit:4;stroke-dasharray:none;stroke-dashoffset:0;stroke-opacity:1;paint-order:normal" d="m 416.74883,47.682493 c -0.75306,-14.630812 -0.86974,-18.596599 -0.52216,-17.749197 0.19786,0.482338 1.73594,4.992757 3.41794,10.023155 l 3.05824,9.146175 -2.79857,2.7565 -2.79858,2.756498 z" id="path1037" inkscape:connector-curvature="0" />
    <path style="opacity:1;fill:#501471;fill-opacity:1;fill-rule:evenodd;stroke:none;stroke-width:0.58557278;stroke-linecap:round;stroke-linejoin:bevel;stroke-miterlimit:4;stroke-dasharray:none;stroke-dashoffset:0;stroke-opacity:1;paint-order:normal" d="m 342.57152,-41.698746 c -4.77616,-4.224965 -8.76359,-7.884163 -8.86095,-8.131554 -0.0974,-0.24739 0.11779,-0.63201 0.47813,-0.85471 0.78353,-0.484248 36.38452,10.929313 35.78108,11.471304 -0.42712,0.383654 -17.29229,5.196708 -18.2095,5.196708 -0.27765,0 -4.41261,-3.456787 -9.18876,-7.681748 z" id="path1039" inkscape:connector-curvature="0" />
    <path style="opacity:1;fill:#501471;fill-opacity:1;fill-rule:evenodd;stroke:none;stroke-width:0.58557278;stroke-linecap:round;stroke-linejoin:bevel;stroke-miterlimit:4;stroke-dasharray:none;stroke-dashoffset:0;stroke-opacity:1;paint-order:normal" d="m 528.02678,185.07118 c -0.55462,-4.84055 -0.89688,-8.91254 -0.76054,-9.04886 0.37139,-0.3714 25.64542,-3.17451 26.91598,-2.98521 0.75377,0.1123 -2.71783,3.188 -11.07313,9.81035 -6.69412,5.30572 -12.59925,9.9568 -13.12251,10.33574 -0.85662,0.62036 -1.0518,-0.18754 -1.9598,-8.11202 z" id="path1041" inkscape:connector-curvature="0" />
    <path style="opacity:1;fill:#501471;fill-opacity:1;fill-rule:evenodd;stroke:none;stroke-width:0.58557278;stroke-linecap:round;stroke-linejoin:bevel;stroke-miterlimit:4;stroke-dasharray:none;stroke-dashoffset:0;stroke-opacity:1;paint-order:normal" d="m 310.90444,104.83247 -3.03387,-4.36399 V 89.679172 c 0,-5.93412 0.2051,-10.916073 0.45579,-11.071008 0.38235,-0.236304 6.08317,30.060386 5.73067,30.455276 -0.0653,0.0732 -1.48397,-1.83078 -3.15259,-4.23097 z" id="path1043" inkscape:connector-curvature="0" />
    <path style="opacity:1;fill:#501471;fill-opacity:1;fill-rule:evenodd;stroke:none;stroke-width:0.58557278;stroke-linecap:round;stroke-linejoin:bevel;stroke-miterlimit:4;stroke-dasharray:none;stroke-dashoffset:0;stroke-opacity:1;paint-order:normal" d="m 163.48449,121.43884 c 0,-0.54473 16.47281,-36.964882 16.92953,-37.429924 0.40469,-0.41206 24.17174,-3.41933 37.44312,-4.737714 l 3.80024,-0.377518 -1.46163,1.26242 c -1.49273,1.28928 -54.65331,40.327426 -55.98044,41.108896 -0.40195,0.23668 -0.73082,0.31491 -0.73082,0.17384 z" id="path1045" inkscape:connector-curvature="0" />
    <path style="opacity:1;fill:#501471;fill-opacity:1;fill-rule:evenodd;stroke:none;stroke-width:0.58557278;stroke-linecap:round;stroke-linejoin:bevel;stroke-miterlimit:4;stroke-dasharray:none;stroke-dashoffset:0;stroke-opacity:1;paint-order:normal" d="m 217.59714,264.47464 c -0.48234,-0.0787 -4.36805,-0.46124 -8.63491,-0.8501 -4.26685,-0.38886 -7.86653,-0.88276 -7.99928,-1.09755 -0.29295,-0.474 24.82995,-13.09253 25.24342,-12.67907 0.288,0.288 -6.56963,13.7782 -7.33651,14.43228 -0.21766,0.18563 -0.79038,0.27313 -1.27272,0.19444 z" id="path1047" inkscape:connector-curvature="0" />
    <path style="opacity:1;fill:#144071;fill-opacity:1;fill-rule:evenodd;stroke:none;stroke-width:0.58557278;stroke-linecap:round;stroke-linejoin:bevel;stroke-miterlimit:4;stroke-dasharray:none;stroke-dashoffset:0;stroke-opacity:1;paint-order:normal" d="m 102.51202,298.14343 c 0.3131,-0.81592 26.61935,-47.23699 27.01998,-47.68053 0.34241,-0.3791 14.04851,9.87567 14.04851,10.51096 0,0.66488 -36.11787,34.1692 -39.71727,36.84326 -1.32145,0.98174 -1.63145,1.05659 -1.35122,0.32631 z" id="path1049" inkscape:connector-curvature="0" />
    <path style="opacity:1;fill:#144071;fill-opacity:1;fill-rule:evenodd;stroke:none;stroke-width:2.21318841;stroke-linecap:round;stroke-linejoin:bevel;stroke-miterlimit:4;stroke-dasharray:none;stroke-dashoffset:0;stroke-opacity:1;paint-order:normal" d="m 2039.0377,287.25736 c 0.982,-2.67643 136.1945,-154.29094 143.3034,-160.68685 l 4.8891,-4.39872 5.0512,5.8724 c 8.1065,9.42438 43.682,59.4791 42.8225,60.25134 -1.8694,1.67966 -186.6581,96.83312 -194.9614,100.39167 -1.0634,0.45575 -1.5606,-0.18768 -1.1048,-1.42984 z" id="path1051" inkscape:connector-curvature="0" transform="matrix(0.26458333,0,0,0.26458333,0,-84.000017)" />
    <path style="opacity:1;fill:#144071;fill-opacity:1;fill-rule:evenodd;stroke:none;stroke-width:0.58557278;stroke-linecap:round;stroke-linejoin:bevel;stroke-miterlimit:4;stroke-dasharray:none;stroke-dashoffset:0;stroke-opacity:1;paint-order:normal" d="m 252.06211,171.77111 c 0,-0.52342 10.68554,-39.26049 11.72461,-42.504 0.54655,-1.70603 0.90141,-1.88044 7.00964,-3.44513 3.53864,-0.90647 6.58675,-1.4953 6.77352,-1.30851 0.41309,0.41308 -24.64491,47.76861 -25.27658,47.76861 -0.12715,0 -0.23119,-0.22993 -0.23119,-0.51097 z" id="path1053" inkscape:connector-curvature="0" />
    <path style="opacity:1;fill:#14715b;fill-opacity:1;fill-rule:evenodd;stroke:none;stroke-width:0.58557278;stroke-linecap:round;stroke-linejoin:bevel;stroke-miterlimit:4;stroke-dasharray:none;stroke-dashoffset:0;stroke-opacity:1;paint-order:normal" d="m 221.90052,40.008009 c 0.68399,-1.805103 16.33262,-39.72248752 16.47239,-39.91339762 0.17123,-0.23388108 31.4832,4.58490632 31.79075,4.89247122 0.13589,0.1358768 0.13742,0.3493161 0.003,0.4743132 -0.2017,0.1881558 -35.99153,26.4325762 -45.814,33.5950612 -2.26891,1.654468 -2.79652,1.859171 -2.4526,0.951552 z" id="path1055" inkscape:connector-curvature="0" />
    <path style="opacity:1;fill:#14715b;fill-opacity:1;fill-rule:evenodd;stroke:none;stroke-width:2.21318841;stroke-linecap:round;stroke-linejoin:bevel;stroke-miterlimit:4;stroke-dasharray:none;stroke-dashoffset:0;stroke-opacity:1;paint-order:normal" d="" id="path1057" inkscape:connector-curvature="0" transform="matrix(0.26458333,0,0,0.26458333,0,-84.000017)" />
    <path style="opacity:1;fill:#14715b;fill-opacity:1;fill-rule:evenodd;stroke:none;stroke-width:0.58557278;stroke-linecap:round;stroke-linejoin:bevel;stroke-miterlimit:4;stroke-dasharray:none;stroke-dashoffset:0;stroke-opacity:1;paint-order:normal" d="m 416.74883,47.682493 c 0.30549,-0.295653 3.84408,-2.956428 7.86357,-5.912826 l 7.30814,-5.375272 0.19296,1.950931 c 0.10612,1.073013 0.0243,3.075049 -0.18166,4.448966 -0.2888,1.925799 -0.66781,2.566588 -1.65458,2.79731 -2.9836,0.697609 -12.86142,2.628445 -13.44662,2.628445 -0.40056,0 -0.43096,-0.199655 -0.0818,-0.537554 z" id="path1059" inkscape:connector-curvature="0" />
    <path style="opacity:1;fill:#14715b;fill-opacity:1;fill-rule:evenodd;stroke:none;stroke-width:0.58557278;stroke-linecap:round;stroke-linejoin:bevel;stroke-miterlimit:4;stroke-dasharray:none;stroke-dashoffset:0;stroke-opacity:1;paint-order:normal" d="m 281.54394,-23.61261 c -3.56084,-0.554189 -6.93922,-1.101614 -7.50755,-1.216499 -0.78478,-0.158649 -0.42293,-0.639456 1.50474,-1.999411 1.39589,-0.98479 3.88099,-2.757863 5.52241,-3.940162 l 2.98439,-2.149634 2.11659,5.075471 c 1.16412,2.791507 2.05743,5.112006 1.98514,5.15666 -0.0723,0.04466 -3.04487,-0.372234 -6.60572,-0.926425 z" id="path1061" inkscape:connector-curvature="0" />
    <path style="opacity:1;fill:#14715b;fill-opacity:1;fill-rule:evenodd;stroke:none;stroke-width:0.58557278;stroke-linecap:round;stroke-linejoin:bevel;stroke-miterlimit:4;stroke-dasharray:none;stroke-dashoffset:0;stroke-opacity:1;paint-order:normal" d="m 334.61033,193.00521 c 0.0169,-0.24117 1.97628,-4.25334 4.35423,-8.91596 l 4.32355,-8.47743 0.0307,4.14364 0.0307,4.14366 -4.15091,4.77229 c -4.0603,4.6681 -4.65056,5.22563 -4.5882,4.3338 z" id="path1063" inkscape:connector-curvature="0" />
  </g>
</svg>
