<?xml version="1.0" encoding="UTF-8" standalone="no"?>
<!-- Created with Inkscape (http://www.inkscape.org/) -->

<svg xmlns:dc="http://purl.org/dc/elements/1.1/" xmlns:cc="http://creativecommons.org/ns#" xmlns:rdf="http://www.w3.org/1999/02/22-rdf-syntax-ns#" xmlns:svg="http://www.w3.org/2000/svg" xmlns="http://www.w3.org/2000/svg" xmlns:sodipodi="http://sodipodi.sourceforge.net/DTD/sodipodi-0.dtd" xmlns:inkscape="http://www.inkscape.org/namespaces/inkscape" width="2560" height="1440" viewBox="0 0 677.33332 381.00001" version="1.1" id="svg8" inkscape:version="0.92.4 5da689c313, 2019-01-14" sodipodi:docname="h2.svg">
  <defs id="defs2" />
  <sodipodi:namedview id="base" pagecolor="#ffffff" bordercolor="#666666" borderopacity="1.0" inkscape:pageopacity="0.0" inkscape:pageshadow="2" inkscape:zoom="0.26801786" inkscape:cx="991.2503" inkscape:cy="1144.5068" inkscape:document-units="mm" inkscape:current-layer="layer3" showgrid="false" units="px" inkscape:window-width="1920" inkscape:window-height="1054" inkscape:window-x="0" inkscape:window-y="26" inkscape:window-maximized="1" />
  <metadata id="metadata5">
    <rdf:RDF>
      <cc:Work rdf:about="">
        <dc:format>image/svg+xml</dc:format>
        <dc:type rdf:resource="http://purl.org/dc/dcmitype/StillImage" />
        <dc:title />
      </cc:Work>
    </rdf:RDF>
  </metadata>
  <g inkscape:groupmode="layer" id="layer3" inkscape:label="Layer 2" style="display:inline">
    <rect style="opacity:1;fill:#535353;fill-opacity:1;fill-rule:evenodd;stroke:none;stroke-width:0.26504403;stroke-linecap:round;stroke-linejoin:bevel;stroke-miterlimit:4;stroke-dasharray:none;stroke-dashoffset:0;stroke-opacity:1;paint-order:normal" id="rect856" width="677.56177" height="380.99817" x="-0.0016907777" y="-2.7815396e-08" />
  </g>
  <g inkscape:label="Layer 1" inkscape:groupmode="layer" id="layer1" transform="translate(0,84.000017)" style="display:inline">
    <path style="opacity:1;fill:#656565;fill-opacity:1;fill-rule:evenodd;stroke:none;stroke-width:2.86164212;stroke-linecap:round;stroke-linejoin:bevel;stroke-miterlimit:4;stroke-dasharray:none;stroke-dashoffset:0;stroke-opacity:1;paint-order:normal" d="" id="path821" inkscape:connector-curvature="0" transform="matrix(0.26458333,0,0,0.26458333,0,-84.000017)" />
    <path style="opacity:1;fill:#e22b53;fill-opacity:1;fill-rule:evenodd;stroke:none;stroke-width:0.7824803;stroke-linecap:round;stroke-linejoin:bevel;stroke-miterlimit:4;stroke-dasharray:none;stroke-dashoffset:0;stroke-opacity:1;paint-order:normal" d="" id="path917" inkscape:connector-curvature="0" transform="matrix(0.26458333,0,0,0.26458333,0,-84.000017)" />
    <path style="opacity:1;fill:#2b90e2;fill-opacity:1;fill-rule:evenodd;stroke:none;stroke-width:0.7824803;stroke-linecap:round;stroke-linejoin:bevel;stroke-miterlimit:4;stroke-dasharray:none;stroke-dashoffset:0;stroke-opacity:1;paint-order:normal" d="" id="path923" inkscape:connector-curvature="0" transform="matrix(0.26458333,0,0,0.26458333,0,-84.000017)" />
    <path style="opacity:1;fill:#2be28f;fill-opacity:1;fill-rule:evenodd;stroke:none;stroke-width:2.21318841;stroke-linecap:round;stroke-linejoin:bevel;stroke-miterlimit:4;stroke-dasharray:none;stroke-dashoffset:0;stroke-opacity:1;paint-order:normal" d="" id="path961" inkscape:connector-curvature="0" transform="matrix(0.26458333,0,0,0.26458333,0,-84.000017)" />
    <path style="opacity:1;fill:#e22b5a;fill-opacity:1;fill-rule:evenodd;stroke:none;stroke-width:2.21318841;stroke-linecap:round;stroke-linejoin:bevel;stroke-miterlimit:4;stroke-dasharray:none;stroke-dashoffset:0;stroke-opacity:1;paint-order:normal" d="" id="path995" inkscape:connector-curvature="0" transform="matrix(0.26458333,0,0,0.26458333,0,-84.000017)" />
    <path style="opacity:1;fill:#e22bad;fill-opacity:1;fill-rule:evenodd;stroke:none;stroke-width:2.21318841;stroke-linecap:round;stroke-linejoin:bevel;stroke-miterlimit:4;stroke-dasharray:none;stroke-dashoffset:0;stroke-opacity:1;paint-order:normal" d="" id="path1015" inkscape:connector-curvature="0" transform="matrix(0.26458333,0,0,0.26458333,0,-84.000017)" />
    <path style="opacity:1;fill:#e22bad;fill-opacity:1;fill-rule:evenodd;stroke:none;stroke-width:2.21318841;stroke-linecap:round;stroke-linejoin:bevel;stroke-miterlimit:4;stroke-dasharray:none;stroke-dashoffset:0;stroke-opacity:1;paint-order:normal" d="" id="path1017" inkscape:connector-curvature="0" transform="matrix(0.26458333,0,0,0.26458333,0,-84.000017)" />
    <path style="opacity:1;fill:#d62be2;fill-opacity:1;fill-rule:evenodd;stroke:none;stroke-width:2.21318841;stroke-linecap:round;stroke-linejoin:bevel;stroke-miterlimit:4;stroke-dasharray:none;stroke-dashoffset:0;stroke-opacity:1;paint-order:normal" d="" id="path1027" inkscape:connector-curvature="0" transform="matrix(0.26458333,0,0,0.26458333,0,-84.000017)" />
    <path style="opacity:1;fill:#14715b;fill-opacity:1;fill-rule:evenodd;stroke:none;stroke-width:2.21318841;stroke-linecap:round;stroke-linejoin:bevel;stroke-miterlimit:4;stroke-dasharray:none;stroke-dashoffset:0;stroke-opacity:1;paint-order:normal" d="" id="path1057" inkscape:connector-curvature="0" transform="matrix(0.26458333,0,0,0.26458333,0,-84.000017)" />
    <path style="fill:#566c69;fill-opacity:1;stroke:none;stroke-width:0.2639094px;stroke-linecap:butt;stroke-linejoin:miter;stroke-opacity:1" d="M 0.14904351,110.46145 37.286496,-61.976401 167.91855,297.21166 -0.00169078,296.99815 Z" id="path1078" inkscape:connector-curvature="0" sodipodi:nodetypes="ccccc" />
    <path style="fill:#354044;fill-opacity:1;stroke:none;stroke-width:0.26440379px;stroke-linecap:butt;stroke-linejoin:miter;stroke-opacity:1" d="m 61.973121,297.24379 81.561559,-213.057169 39.84025,84.481229 19.92013,-24.47043 93.21759,152.95735 z" id="path1080" inkscape:connector-curvature="0" sodipodi:nodetypes="cccccc" />
    <path style="opacity:1;fill:#ffffff;fill-opacity:1;fill-rule:evenodd;stroke:none;stroke-width:0.26499999;stroke-linecap:round;stroke-linejoin:bevel;stroke-miterlimit:4;stroke-dasharray:none;stroke-dashoffset:0;stroke-opacity:1;paint-order:normal" d="m 448.8854,-12.396558 a 64.492187,65.319007 0 0 0 -33.76229,9.7255045 55.397132,53.743489 0 0 1 8.13078,-0.630452 55.397132,53.743489 0 0 1 55.39713,53.7434885 55.397132,53.743489 0 0 1 -55.39713,53.743497 55.397132,53.743489 0 0 1 -17.50126,-2.80087 64.492187,65.319007 0 0 0 43.13277,16.85686 64.492187,65.319007 0 0 0 64.49218,-65.319019 64.492187,65.319007 0 0 0 -64.49218,-65.319009 z" id="path1084" inkscape:connector-curvature="0" />
    <path style="opacity:1;fill:#354044;fill-opacity:1;fill-rule:evenodd;stroke:none;stroke-width:0.26499999;stroke-linecap:round;stroke-linejoin:bevel;stroke-miterlimit:4;stroke-dasharray:none;stroke-dashoffset:0;stroke-opacity:1;paint-order:normal" d="m 435.26867,49.85189 c -2.77001,0 -5.0002,2.23021 -5.0002,5.00021 0,0.88686 0.23079,1.71689 0.63251,2.43758 H 398.5195 c -2.77,0 -4.9997,2.23021 -4.9997,5.00021 0,2.77 2.2297,4.99969 4.9997,4.99969 h 49.40059 c -1.18872,0.63395 -4.80346,1.167412 -4.51486,5.326315 0.22989,3.313007 3.77178,4.446213 5.39129,4.446213 h 52.61954 c 1.61952,0 6.26656,0.03281 6.50188,-4.629494 0.24377,-4.829735 -4.88236,-5.370404 -6.50188,-5.370404 h -11.39671 c 2.0326,-0.63429 3.50054,-2.52539 3.50054,-4.77232 0,-0.88696 -0.23122,-1.71735 -0.63302,-2.43809 h 32.38148 c 2.77001,0 5.00021,-2.2297 5.00021,-4.9997 0,-2.77 -2.2302,-5.00021 -5.00021,-5.00021 z" id="rect1097" inkscape:connector-curvature="0" sodipodi:nodetypes="sscssscssssscscssss" />
  </g>
  <g inkscape:groupmode="layer" id="layer2" inkscape:label="Layer 3">
    <path style="display:inline;fill:#000331;fill-opacity:1;stroke:none;stroke-width:0.2649914px;stroke-linecap:butt;stroke-linejoin:miter;stroke-opacity:1" d="M 366.72962,381.09419 441.93839,177.05753 487.0698,258.37056 581.95992,0.05363236 678.14571,-0.193164 677.5596,382.97254 Z" id="path1082" inkscape:connector-curvature="0" sodipodi:nodetypes="ccccccc" />
  </g>
</svg>
